<mxfile host="Electron" agent="Mozilla/5.0 (X11; Linux x86_64) AppleWebKit/537.36 (KHTML, like Gecko) draw.io/24.7.5 Chrome/126.0.6478.183 Electron/31.3.0 Safari/537.36" version="24.7.5">
  <diagram id="C5RBs43oDa-KdzZeNtuy" name="Page-1">
    <mxGraphModel dx="2739" dy="2284" grid="1" gridSize="10" guides="1" tooltips="1" connect="1" arrows="1" fold="1" page="1" pageScale="1" pageWidth="827" pageHeight="1169" math="0" shadow="0">
      <root>
        <mxCell id="WIyWlLk6GJQsqaUBKTNV-0" />
        <mxCell id="WIyWlLk6GJQsqaUBKTNV-1" parent="WIyWlLk6GJQsqaUBKTNV-0" />
        <mxCell id="7zXiN3NymBhSrJNDLlnQ-3" value="" style="edgeStyle=orthogonalEdgeStyle;rounded=0;orthogonalLoop=1;jettySize=auto;html=1;" parent="WIyWlLk6GJQsqaUBKTNV-1" source="7zXiN3NymBhSrJNDLlnQ-1" target="7zXiN3NymBhSrJNDLlnQ-2" edge="1">
          <mxGeometry relative="1" as="geometry" />
        </mxCell>
        <mxCell id="7zXiN3NymBhSrJNDLlnQ-1" value="Start" style="strokeWidth=2;html=1;shape=mxgraph.flowchart.start_1;whiteSpace=wrap;fillColor=#008a00;fontColor=#ffffff;strokeColor=#005700;" parent="WIyWlLk6GJQsqaUBKTNV-1" vertex="1">
          <mxGeometry x="60" y="100" width="100" height="60" as="geometry" />
        </mxCell>
        <mxCell id="7zXiN3NymBhSrJNDLlnQ-5" value="" style="edgeStyle=orthogonalEdgeStyle;rounded=0;orthogonalLoop=1;jettySize=auto;html=1;" parent="WIyWlLk6GJQsqaUBKTNV-1" source="7zXiN3NymBhSrJNDLlnQ-2" target="7zXiN3NymBhSrJNDLlnQ-4" edge="1">
          <mxGeometry relative="1" as="geometry" />
        </mxCell>
        <mxCell id="7zXiN3NymBhSrJNDLlnQ-2" value="Customer_L_Name" style="shape=parallelogram;perimeter=parallelogramPerimeter;whiteSpace=wrap;html=1;fixedSize=1;strokeWidth=2;fillColor=#cce5ff;strokeColor=#36393d;" parent="WIyWlLk6GJQsqaUBKTNV-1" vertex="1">
          <mxGeometry x="220" y="100" width="150" height="60" as="geometry" />
        </mxCell>
        <mxCell id="7zXiN3NymBhSrJNDLlnQ-7" value="" style="edgeStyle=orthogonalEdgeStyle;rounded=0;orthogonalLoop=1;jettySize=auto;html=1;" parent="WIyWlLk6GJQsqaUBKTNV-1" source="7zXiN3NymBhSrJNDLlnQ-4" target="7zXiN3NymBhSrJNDLlnQ-6" edge="1">
          <mxGeometry relative="1" as="geometry" />
        </mxCell>
        <mxCell id="7zXiN3NymBhSrJNDLlnQ-4" value="Number_of_Bathrooms" style="shape=parallelogram;perimeter=parallelogramPerimeter;whiteSpace=wrap;html=1;fixedSize=1;strokeWidth=2;fillColor=#cce5ff;strokeColor=#36393d;" parent="WIyWlLk6GJQsqaUBKTNV-1" vertex="1">
          <mxGeometry x="430" y="100" width="150" height="60" as="geometry" />
        </mxCell>
        <mxCell id="7zXiN3NymBhSrJNDLlnQ-9" value="" style="edgeStyle=orthogonalEdgeStyle;rounded=0;orthogonalLoop=1;jettySize=auto;html=1;" parent="WIyWlLk6GJQsqaUBKTNV-1" source="7zXiN3NymBhSrJNDLlnQ-6" target="7zXiN3NymBhSrJNDLlnQ-8" edge="1">
          <mxGeometry relative="1" as="geometry" />
        </mxCell>
        <mxCell id="7zXiN3NymBhSrJNDLlnQ-6" value="Number_of_other_Rooms" style="shape=parallelogram;perimeter=parallelogramPerimeter;whiteSpace=wrap;html=1;fixedSize=1;strokeWidth=2;fillColor=#cce5ff;strokeColor=#36393d;" parent="WIyWlLk6GJQsqaUBKTNV-1" vertex="1">
          <mxGeometry x="640" y="100" width="190" height="60" as="geometry" />
        </mxCell>
        <mxCell id="7zXiN3NymBhSrJNDLlnQ-11" value="" style="edgeStyle=orthogonalEdgeStyle;rounded=0;orthogonalLoop=1;jettySize=auto;html=1;" parent="WIyWlLk6GJQsqaUBKTNV-1" source="7zXiN3NymBhSrJNDLlnQ-8" target="7zXiN3NymBhSrJNDLlnQ-10" edge="1">
          <mxGeometry relative="1" as="geometry" />
        </mxCell>
        <mxCell id="7zXiN3NymBhSrJNDLlnQ-8" value="Total_Bathroom_cost=&lt;br&gt;Number_of_Rooms * 15" style="whiteSpace=wrap;html=1;strokeWidth=2;fillColor=#ffff88;strokeColor=#36393d;" parent="WIyWlLk6GJQsqaUBKTNV-1" vertex="1">
          <mxGeometry x="652.5" y="230" width="165" height="60" as="geometry" />
        </mxCell>
        <mxCell id="7zXiN3NymBhSrJNDLlnQ-13" value="" style="edgeStyle=orthogonalEdgeStyle;rounded=0;orthogonalLoop=1;jettySize=auto;html=1;" parent="WIyWlLk6GJQsqaUBKTNV-1" source="7zXiN3NymBhSrJNDLlnQ-10" target="7zXiN3NymBhSrJNDLlnQ-12" edge="1">
          <mxGeometry relative="1" as="geometry" />
        </mxCell>
        <mxCell id="7zXiN3NymBhSrJNDLlnQ-10" value="Total_Other_Room_Cost =&lt;br&gt;&lt;br&gt;Number_of_other_Rooms * 10" style="whiteSpace=wrap;html=1;strokeWidth=2;fillColor=#ffff88;strokeColor=#36393d;" parent="WIyWlLk6GJQsqaUBKTNV-1" vertex="1">
          <mxGeometry x="710" y="380" width="205" height="60" as="geometry" />
        </mxCell>
        <mxCell id="7zXiN3NymBhSrJNDLlnQ-15" value="" style="edgeStyle=orthogonalEdgeStyle;rounded=0;orthogonalLoop=1;jettySize=auto;html=1;" parent="WIyWlLk6GJQsqaUBKTNV-1" source="7zXiN3NymBhSrJNDLlnQ-12" target="7zXiN3NymBhSrJNDLlnQ-14" edge="1">
          <mxGeometry relative="1" as="geometry" />
        </mxCell>
        <mxCell id="7zXiN3NymBhSrJNDLlnQ-12" value="Total_Cost_of_Cleaning_Services =&lt;div&gt;40 +&amp;nbsp;&lt;span style=&quot;background-color: initial;&quot;&gt;Total_Bathroom_cost + Total_Other_Room_Cost&lt;/span&gt;&lt;/div&gt;" style="whiteSpace=wrap;html=1;strokeWidth=2;fillColor=#ffff88;strokeColor=#36393d;" parent="WIyWlLk6GJQsqaUBKTNV-1" vertex="1">
          <mxGeometry x="350" y="380" width="250" height="60" as="geometry" />
        </mxCell>
        <mxCell id="7zXiN3NymBhSrJNDLlnQ-17" value="" style="edgeStyle=orthogonalEdgeStyle;rounded=0;orthogonalLoop=1;jettySize=auto;html=1;" parent="WIyWlLk6GJQsqaUBKTNV-1" source="7zXiN3NymBhSrJNDLlnQ-14" target="7zXiN3NymBhSrJNDLlnQ-16" edge="1">
          <mxGeometry relative="1" as="geometry" />
        </mxCell>
        <mxCell id="7zXiN3NymBhSrJNDLlnQ-14" value="Print&lt;br&gt;Customer_L_Name" style="shape=parallelogram;perimeter=parallelogramPerimeter;whiteSpace=wrap;html=1;fixedSize=1;strokeWidth=2;fillColor=#ffcc99;strokeColor=#36393d;" parent="WIyWlLk6GJQsqaUBKTNV-1" vertex="1">
          <mxGeometry x="140" y="380" width="150" height="60" as="geometry" />
        </mxCell>
        <mxCell id="7zXiN3NymBhSrJNDLlnQ-19" value="" style="edgeStyle=orthogonalEdgeStyle;rounded=0;orthogonalLoop=1;jettySize=auto;html=1;" parent="WIyWlLk6GJQsqaUBKTNV-1" source="7zXiN3NymBhSrJNDLlnQ-16" target="7zXiN3NymBhSrJNDLlnQ-18" edge="1">
          <mxGeometry relative="1" as="geometry" />
        </mxCell>
        <mxCell id="7zXiN3NymBhSrJNDLlnQ-16" value="Print&lt;br&gt;Number_of_Bathrooms and Total_Bathroom_Cost" style="shape=parallelogram;perimeter=parallelogramPerimeter;whiteSpace=wrap;html=1;fixedSize=1;strokeWidth=2;fillColor=#ffcc99;strokeColor=#36393d;" parent="WIyWlLk6GJQsqaUBKTNV-1" vertex="1">
          <mxGeometry x="-180" y="380" width="250" height="60" as="geometry" />
        </mxCell>
        <mxCell id="7zXiN3NymBhSrJNDLlnQ-21" value="" style="edgeStyle=orthogonalEdgeStyle;rounded=0;orthogonalLoop=1;jettySize=auto;html=1;" parent="WIyWlLk6GJQsqaUBKTNV-1" source="7zXiN3NymBhSrJNDLlnQ-18" target="7zXiN3NymBhSrJNDLlnQ-20" edge="1">
          <mxGeometry relative="1" as="geometry" />
        </mxCell>
        <mxCell id="7zXiN3NymBhSrJNDLlnQ-18" value="Print&lt;br&gt;Number_of_other_Rooms and Total_Other_Room_Cost" style="shape=parallelogram;perimeter=parallelogramPerimeter;whiteSpace=wrap;html=1;fixedSize=1;strokeWidth=2;fillColor=#ffcc99;strokeColor=#36393d;" parent="WIyWlLk6GJQsqaUBKTNV-1" vertex="1">
          <mxGeometry x="-230" y="555" width="235" height="60" as="geometry" />
        </mxCell>
        <mxCell id="7zXiN3NymBhSrJNDLlnQ-23" value="" style="edgeStyle=orthogonalEdgeStyle;rounded=0;orthogonalLoop=1;jettySize=auto;html=1;" parent="WIyWlLk6GJQsqaUBKTNV-1" source="7zXiN3NymBhSrJNDLlnQ-20" target="7zXiN3NymBhSrJNDLlnQ-22" edge="1">
          <mxGeometry relative="1" as="geometry" />
        </mxCell>
        <mxCell id="7zXiN3NymBhSrJNDLlnQ-20" value="Print&lt;br&gt;Total_Cost_of_Cleaning_Services&amp;nbsp;" style="shape=parallelogram;perimeter=parallelogramPerimeter;whiteSpace=wrap;html=1;fixedSize=1;strokeWidth=2;fillColor=#ffcc99;strokeColor=#36393d;" parent="WIyWlLk6GJQsqaUBKTNV-1" vertex="1">
          <mxGeometry x="70" y="555" width="240" height="60" as="geometry" />
        </mxCell>
        <mxCell id="GI9pRMckeUFEXaE_mjZz-1" value="" style="edgeStyle=orthogonalEdgeStyle;rounded=0;orthogonalLoop=1;jettySize=auto;html=1;" edge="1" parent="WIyWlLk6GJQsqaUBKTNV-1" source="7zXiN3NymBhSrJNDLlnQ-22" target="GI9pRMckeUFEXaE_mjZz-0">
          <mxGeometry relative="1" as="geometry" />
        </mxCell>
        <mxCell id="7zXiN3NymBhSrJNDLlnQ-22" value="Print&lt;br&gt;Program Is Complete, thank you for using our services" style="shape=parallelogram;perimeter=parallelogramPerimeter;whiteSpace=wrap;html=1;fixedSize=1;strokeWidth=2;fillColor=#ffcccc;strokeColor=#36393d;" parent="WIyWlLk6GJQsqaUBKTNV-1" vertex="1">
          <mxGeometry x="350" y="555" width="340" height="60" as="geometry" />
        </mxCell>
        <mxCell id="7zXiN3NymBhSrJNDLlnQ-24" value="Stop" style="strokeWidth=2;html=1;shape=mxgraph.flowchart.start_1;whiteSpace=wrap;fillColor=#e51400;fontColor=#ffffff;strokeColor=#B20000;" parent="WIyWlLk6GJQsqaUBKTNV-1" vertex="1">
          <mxGeometry x="1070" y="555" width="100" height="60" as="geometry" />
        </mxCell>
        <mxCell id="7zXiN3NymBhSrJNDLlnQ-27" value="" style="edgeStyle=orthogonalEdgeStyle;rounded=0;orthogonalLoop=1;jettySize=auto;html=1;" parent="WIyWlLk6GJQsqaUBKTNV-1" source="7zXiN3NymBhSrJNDLlnQ-26" target="7zXiN3NymBhSrJNDLlnQ-2" edge="1">
          <mxGeometry relative="1" as="geometry" />
        </mxCell>
        <mxCell id="7zXiN3NymBhSrJNDLlnQ-26" value="Step 1&quot; Introduce the customer Last Name." style="text;html=1;align=center;verticalAlign=middle;resizable=0;points=[];autosize=1;strokeColor=#666666;fillColor=#f5f5f5;gradientColor=#b3b3b3;" parent="WIyWlLk6GJQsqaUBKTNV-1" vertex="1">
          <mxGeometry x="170" y="18" width="250" height="30" as="geometry" />
        </mxCell>
        <mxCell id="7zXiN3NymBhSrJNDLlnQ-29" value="" style="edgeStyle=orthogonalEdgeStyle;rounded=0;orthogonalLoop=1;jettySize=auto;html=1;" parent="WIyWlLk6GJQsqaUBKTNV-1" source="7zXiN3NymBhSrJNDLlnQ-28" target="7zXiN3NymBhSrJNDLlnQ-4" edge="1">
          <mxGeometry relative="1" as="geometry" />
        </mxCell>
        <mxCell id="7zXiN3NymBhSrJNDLlnQ-28" value="Step 2: Introduce Number of Bathrooms" style="text;html=1;align=center;verticalAlign=middle;resizable=0;points=[];autosize=1;strokeColor=#666666;fillColor=#f5f5f5;gradientColor=#b3b3b3;" parent="WIyWlLk6GJQsqaUBKTNV-1" vertex="1">
          <mxGeometry x="385" y="-30" width="240" height="30" as="geometry" />
        </mxCell>
        <mxCell id="7zXiN3NymBhSrJNDLlnQ-31" value="" style="edgeStyle=orthogonalEdgeStyle;rounded=0;orthogonalLoop=1;jettySize=auto;html=1;" parent="WIyWlLk6GJQsqaUBKTNV-1" source="7zXiN3NymBhSrJNDLlnQ-30" target="7zXiN3NymBhSrJNDLlnQ-6" edge="1">
          <mxGeometry relative="1" as="geometry" />
        </mxCell>
        <mxCell id="7zXiN3NymBhSrJNDLlnQ-30" value="Step 3: Introduce quantity of other rooms to clean." style="text;html=1;align=center;verticalAlign=middle;resizable=0;points=[];autosize=1;strokeColor=#666666;fillColor=#f5f5f5;gradientColor=#b3b3b3;" parent="WIyWlLk6GJQsqaUBKTNV-1" vertex="1">
          <mxGeometry x="590" y="18" width="290" height="30" as="geometry" />
        </mxCell>
        <mxCell id="7zXiN3NymBhSrJNDLlnQ-33" value="" style="edgeStyle=orthogonalEdgeStyle;rounded=0;orthogonalLoop=1;jettySize=auto;html=1;" parent="WIyWlLk6GJQsqaUBKTNV-1" source="7zXiN3NymBhSrJNDLlnQ-32" target="7zXiN3NymBhSrJNDLlnQ-8" edge="1">
          <mxGeometry relative="1" as="geometry" />
        </mxCell>
        <mxCell id="7zXiN3NymBhSrJNDLlnQ-32" value="Step 4: Calculate&amp;nbsp; the total Bathroom Cost" style="text;html=1;align=center;verticalAlign=middle;resizable=0;points=[];autosize=1;strokeColor=#666666;fillColor=#f5f5f5;gradientColor=#b3b3b3;" parent="WIyWlLk6GJQsqaUBKTNV-1" vertex="1">
          <mxGeometry x="860" y="245" width="250" height="30" as="geometry" />
        </mxCell>
        <mxCell id="7zXiN3NymBhSrJNDLlnQ-35" value="" style="edgeStyle=orthogonalEdgeStyle;rounded=0;orthogonalLoop=1;jettySize=auto;html=1;" parent="WIyWlLk6GJQsqaUBKTNV-1" source="7zXiN3NymBhSrJNDLlnQ-34" target="7zXiN3NymBhSrJNDLlnQ-10" edge="1">
          <mxGeometry relative="1" as="geometry" />
        </mxCell>
        <mxCell id="7zXiN3NymBhSrJNDLlnQ-34" value="Step 5: Calculate the total for&amp;nbsp; other rooms cost" style="text;html=1;align=center;verticalAlign=middle;resizable=0;points=[];autosize=1;strokeColor=#666666;fillColor=#f5f5f5;gradientColor=#b3b3b3;" parent="WIyWlLk6GJQsqaUBKTNV-1" vertex="1">
          <mxGeometry x="970" y="395" width="270" height="30" as="geometry" />
        </mxCell>
        <mxCell id="7zXiN3NymBhSrJNDLlnQ-37" value="" style="edgeStyle=orthogonalEdgeStyle;rounded=0;orthogonalLoop=1;jettySize=auto;html=1;" parent="WIyWlLk6GJQsqaUBKTNV-1" source="7zXiN3NymBhSrJNDLlnQ-36" target="7zXiN3NymBhSrJNDLlnQ-12" edge="1">
          <mxGeometry relative="1" as="geometry" />
        </mxCell>
        <mxCell id="7zXiN3NymBhSrJNDLlnQ-36" value="Step 6: Calculate the total cost of cleaning services" style="text;html=1;align=center;verticalAlign=middle;resizable=0;points=[];autosize=1;strokeColor=#666666;fillColor=#f5f5f5;gradientColor=#b3b3b3;" parent="WIyWlLk6GJQsqaUBKTNV-1" vertex="1">
          <mxGeometry x="290" y="215" width="290" height="30" as="geometry" />
        </mxCell>
        <mxCell id="7zXiN3NymBhSrJNDLlnQ-39" value="" style="edgeStyle=orthogonalEdgeStyle;rounded=0;orthogonalLoop=1;jettySize=auto;html=1;" parent="WIyWlLk6GJQsqaUBKTNV-1" source="7zXiN3NymBhSrJNDLlnQ-38" target="7zXiN3NymBhSrJNDLlnQ-14" edge="1">
          <mxGeometry relative="1" as="geometry" />
        </mxCell>
        <mxCell id="7zXiN3NymBhSrJNDLlnQ-38" value="Step 7: Print Customer&#39;s Last Name&amp;nbsp;" style="text;html=1;align=center;verticalAlign=middle;resizable=0;points=[];autosize=1;strokeColor=#666666;fillColor=#f5f5f5;gradientColor=#b3b3b3;" parent="WIyWlLk6GJQsqaUBKTNV-1" vertex="1">
          <mxGeometry x="105" y="290" width="220" height="30" as="geometry" />
        </mxCell>
        <mxCell id="7zXiN3NymBhSrJNDLlnQ-41" value="" style="edgeStyle=orthogonalEdgeStyle;rounded=0;orthogonalLoop=1;jettySize=auto;html=1;" parent="WIyWlLk6GJQsqaUBKTNV-1" source="7zXiN3NymBhSrJNDLlnQ-40" target="7zXiN3NymBhSrJNDLlnQ-16" edge="1">
          <mxGeometry relative="1" as="geometry" />
        </mxCell>
        <mxCell id="7zXiN3NymBhSrJNDLlnQ-40" value="Step 8: Print The number of bathrooms and the total cost to clean those." style="text;html=1;align=center;verticalAlign=middle;resizable=0;points=[];autosize=1;strokeColor=#666666;fillColor=#f5f5f5;gradientColor=#b3b3b3;" parent="WIyWlLk6GJQsqaUBKTNV-1" vertex="1">
          <mxGeometry x="-260" y="215" width="410" height="30" as="geometry" />
        </mxCell>
        <mxCell id="7zXiN3NymBhSrJNDLlnQ-43" value="" style="edgeStyle=orthogonalEdgeStyle;rounded=0;orthogonalLoop=1;jettySize=auto;html=1;" parent="WIyWlLk6GJQsqaUBKTNV-1" source="7zXiN3NymBhSrJNDLlnQ-42" target="7zXiN3NymBhSrJNDLlnQ-18" edge="1">
          <mxGeometry relative="1" as="geometry" />
        </mxCell>
        <mxCell id="7zXiN3NymBhSrJNDLlnQ-42" value="Step 9: Print the number of other rooms and the total cost to clean those." style="text;html=1;align=center;verticalAlign=middle;resizable=0;points=[];autosize=1;strokeColor=#666666;fillColor=#f5f5f5;gradientColor=#b3b3b3;" parent="WIyWlLk6GJQsqaUBKTNV-1" vertex="1">
          <mxGeometry x="-317.5" y="690" width="410" height="30" as="geometry" />
        </mxCell>
        <mxCell id="7zXiN3NymBhSrJNDLlnQ-45" value="" style="edgeStyle=orthogonalEdgeStyle;rounded=0;orthogonalLoop=1;jettySize=auto;html=1;" parent="WIyWlLk6GJQsqaUBKTNV-1" source="7zXiN3NymBhSrJNDLlnQ-44" target="7zXiN3NymBhSrJNDLlnQ-20" edge="1">
          <mxGeometry relative="1" as="geometry" />
        </mxCell>
        <mxCell id="7zXiN3NymBhSrJNDLlnQ-44" value="Step 10: Print The final cost of the cleaning services" style="text;html=1;align=center;verticalAlign=middle;resizable=0;points=[];autosize=1;strokeColor=#666666;fillColor=#f5f5f5;gradientColor=#b3b3b3;" parent="WIyWlLk6GJQsqaUBKTNV-1" vertex="1">
          <mxGeometry x="40" y="760" width="300" height="30" as="geometry" />
        </mxCell>
        <mxCell id="7zXiN3NymBhSrJNDLlnQ-47" value="" style="edgeStyle=orthogonalEdgeStyle;rounded=0;orthogonalLoop=1;jettySize=auto;html=1;" parent="WIyWlLk6GJQsqaUBKTNV-1" source="7zXiN3NymBhSrJNDLlnQ-46" target="7zXiN3NymBhSrJNDLlnQ-22" edge="1">
          <mxGeometry relative="1" as="geometry" />
        </mxCell>
        <mxCell id="7zXiN3NymBhSrJNDLlnQ-46" value="Step 11: Show end of the program message." style="text;html=1;align=center;verticalAlign=middle;resizable=0;points=[];autosize=1;strokeColor=#666666;fillColor=#f5f5f5;gradientColor=#b3b3b3;" parent="WIyWlLk6GJQsqaUBKTNV-1" vertex="1">
          <mxGeometry x="390" y="688" width="260" height="30" as="geometry" />
        </mxCell>
        <mxCell id="GI9pRMckeUFEXaE_mjZz-3" value="" style="edgeStyle=orthogonalEdgeStyle;rounded=0;orthogonalLoop=1;jettySize=auto;html=1;" edge="1" parent="WIyWlLk6GJQsqaUBKTNV-1" source="GI9pRMckeUFEXaE_mjZz-0" target="GI9pRMckeUFEXaE_mjZz-2">
          <mxGeometry relative="1" as="geometry" />
        </mxCell>
        <mxCell id="GI9pRMckeUFEXaE_mjZz-9" value="" style="edgeStyle=orthogonalEdgeStyle;rounded=0;orthogonalLoop=1;jettySize=auto;html=1;" edge="1" parent="WIyWlLk6GJQsqaUBKTNV-1" source="GI9pRMckeUFEXaE_mjZz-0" target="GI9pRMckeUFEXaE_mjZz-7">
          <mxGeometry relative="1" as="geometry" />
        </mxCell>
        <mxCell id="GI9pRMckeUFEXaE_mjZz-0" value="Do you want run the program again?" style="rhombus;whiteSpace=wrap;html=1;fillColor=#cdeb8b;strokeColor=#36393d;strokeWidth=2;" vertex="1" parent="WIyWlLk6GJQsqaUBKTNV-1">
          <mxGeometry x="780" y="518" width="140" height="132.5" as="geometry" />
        </mxCell>
        <mxCell id="GI9pRMckeUFEXaE_mjZz-4" value="" style="edgeStyle=orthogonalEdgeStyle;rounded=0;orthogonalLoop=1;jettySize=auto;html=1;" edge="1" parent="WIyWlLk6GJQsqaUBKTNV-1" source="GI9pRMckeUFEXaE_mjZz-2" target="7zXiN3NymBhSrJNDLlnQ-24">
          <mxGeometry relative="1" as="geometry" />
        </mxCell>
        <mxCell id="GI9pRMckeUFEXaE_mjZz-2" value="&lt;font color=&quot;#000000&quot;&gt;No&lt;/font&gt;" style="ellipse;whiteSpace=wrap;html=1;fillColor=#d80073;strokeColor=#A50040;strokeWidth=2;fontColor=#ffffff;" vertex="1" parent="WIyWlLk6GJQsqaUBKTNV-1">
          <mxGeometry x="980" y="567.5" width="40" height="35" as="geometry" />
        </mxCell>
        <mxCell id="GI9pRMckeUFEXaE_mjZz-10" style="edgeStyle=orthogonalEdgeStyle;rounded=0;orthogonalLoop=1;jettySize=auto;html=1;" edge="1" parent="WIyWlLk6GJQsqaUBKTNV-1" source="GI9pRMckeUFEXaE_mjZz-7" target="7zXiN3NymBhSrJNDLlnQ-1">
          <mxGeometry relative="1" as="geometry">
            <Array as="points">
              <mxPoint x="850" y="840" />
              <mxPoint x="-470" y="840" />
              <mxPoint x="-470" y="130" />
            </Array>
          </mxGeometry>
        </mxCell>
        <mxCell id="GI9pRMckeUFEXaE_mjZz-7" value="&lt;font color=&quot;#000000&quot;&gt;Yes&lt;/font&gt;" style="ellipse;whiteSpace=wrap;html=1;fillColor=#60a917;strokeColor=#2D7600;strokeWidth=2;fontColor=#ffffff;" vertex="1" parent="WIyWlLk6GJQsqaUBKTNV-1">
          <mxGeometry x="830" y="710" width="40" height="35" as="geometry" />
        </mxCell>
        <mxCell id="GI9pRMckeUFEXaE_mjZz-12" value="" style="edgeStyle=orthogonalEdgeStyle;rounded=0;orthogonalLoop=1;jettySize=auto;html=1;" edge="1" parent="WIyWlLk6GJQsqaUBKTNV-1" source="GI9pRMckeUFEXaE_mjZz-11" target="GI9pRMckeUFEXaE_mjZz-7">
          <mxGeometry relative="1" as="geometry" />
        </mxCell>
        <mxCell id="GI9pRMckeUFEXaE_mjZz-11" value="Optional Step: Run Program Again with a new customer" style="text;html=1;align=center;verticalAlign=middle;resizable=0;points=[];autosize=1;strokeColor=#666666;fillColor=#f5f5f5;gradientColor=#b3b3b3;" vertex="1" parent="WIyWlLk6GJQsqaUBKTNV-1">
          <mxGeometry x="950" y="712.5" width="320" height="30" as="geometry" />
        </mxCell>
      </root>
    </mxGraphModel>
  </diagram>
</mxfile>
